<?xml version="1.0" encoding="UTF-8"?>
<svg xmlns:xhtml="http://www.w3.org/1999/xhtml" xmlns:xlink="http://www.w3.org/1999/xlink" xmlns="http://www.w3.org/2000/svg" id="mermaid-svg-680" width="100%" class="flowchart" style="max-width: 100%;" viewBox="-62.67640991210938 -62.67640991210938 1602.6372436523438 1378.8810180664063" height="100%"><style>#mermaid-svg-680{font-family:"trebuchet ms",verdana,arial,sans-serif;font-size:16px;fill:#ccc;}@keyframes edge-animation-frame{from{stroke-dashoffset:0;}}@keyframes dash{to{stroke-dashoffset:0;}}#mermaid-svg-680 .edge-animation-slow{stroke-dasharray:9,5!important;stroke-dashoffset:900;animation:dash 50s linear infinite;stroke-linecap:round;}#mermaid-svg-680 .edge-animation-fast{stroke-dasharray:9,5!important;stroke-dashoffset:900;animation:dash 20s linear infinite;stroke-linecap:round;}#mermaid-svg-680 .error-icon{fill:#a44141;}#mermaid-svg-680 .error-text{fill:#ddd;stroke:#ddd;}#mermaid-svg-680 .edge-thickness-normal{stroke-width:1px;}#mermaid-svg-680 .edge-thickness-thick{stroke-width:3.5px;}#mermaid-svg-680 .edge-pattern-solid{stroke-dasharray:0;}#mermaid-svg-680 .edge-thickness-invisible{stroke-width:0;fill:none;}#mermaid-svg-680 .edge-pattern-dashed{stroke-dasharray:3;}#mermaid-svg-680 .edge-pattern-dotted{stroke-dasharray:2;}#mermaid-svg-680 .marker{fill:lightgrey;stroke:lightgrey;}#mermaid-svg-680 .marker.cross{stroke:lightgrey;}#mermaid-svg-680 svg{font-family:"trebuchet ms",verdana,arial,sans-serif;font-size:16px;}#mermaid-svg-680 p{margin:0;}#mermaid-svg-680 .label{font-family:"trebuchet ms",verdana,arial,sans-serif;color:#ccc;}#mermaid-svg-680 .cluster-label text{fill:#F9FFFE;}#mermaid-svg-680 .cluster-label span{color:#F9FFFE;}#mermaid-svg-680 .cluster-label span p{background-color:transparent;}#mermaid-svg-680 .label text,#mermaid-svg-680 span{fill:#ccc;color:#ccc;}#mermaid-svg-680 .node rect,#mermaid-svg-680 .node circle,#mermaid-svg-680 .node ellipse,#mermaid-svg-680 .node polygon,#mermaid-svg-680 .node path{fill:#1f2020;stroke:#ccc;stroke-width:1px;}#mermaid-svg-680 .rough-node .label text,#mermaid-svg-680 .node .label text,#mermaid-svg-680 .image-shape .label,#mermaid-svg-680 .icon-shape .label{text-anchor:middle;}#mermaid-svg-680 .node .katex path{fill:#000;stroke:#000;stroke-width:1px;}#mermaid-svg-680 .rough-node .label,#mermaid-svg-680 .node .label,#mermaid-svg-680 .image-shape .label,#mermaid-svg-680 .icon-shape .label{text-align:center;}#mermaid-svg-680 .node.clickable{cursor:pointer;}#mermaid-svg-680 .root .anchor path{fill:lightgrey!important;stroke-width:0;stroke:lightgrey;}#mermaid-svg-680 .arrowheadPath{fill:lightgrey;}#mermaid-svg-680 .edgePath .path{stroke:lightgrey;stroke-width:2.0px;}#mermaid-svg-680 .flowchart-link{stroke:lightgrey;fill:none;}#mermaid-svg-680 .edgeLabel{background-color:hsl(0, 0%, 34.4117647059%);text-align:center;}#mermaid-svg-680 .edgeLabel p{background-color:hsl(0, 0%, 34.4117647059%);}#mermaid-svg-680 .edgeLabel rect{opacity:0.5;background-color:hsl(0, 0%, 34.4117647059%);fill:hsl(0, 0%, 34.4117647059%);}#mermaid-svg-680 .labelBkg{background-color:rgba(87.75, 87.75, 87.75, 0.5);}#mermaid-svg-680 .cluster rect{fill:hsl(180, 1.5873015873%, 28.3529411765%);stroke:rgba(255, 255, 255, 0.25);stroke-width:1px;}#mermaid-svg-680 .cluster text{fill:#F9FFFE;}#mermaid-svg-680 .cluster span{color:#F9FFFE;}#mermaid-svg-680 div.mermaidTooltip{position:absolute;text-align:center;max-width:200px;padding:2px;font-family:"trebuchet ms",verdana,arial,sans-serif;font-size:12px;background:hsl(20, 1.5873015873%, 12.3529411765%);border:1px solid rgba(255, 255, 255, 0.25);border-radius:2px;pointer-events:none;z-index:100;}#mermaid-svg-680 .flowchartTitleText{text-anchor:middle;font-size:18px;fill:#ccc;}#mermaid-svg-680 rect.text{fill:none;stroke-width:0;}#mermaid-svg-680 .icon-shape,#mermaid-svg-680 .image-shape{background-color:hsl(0, 0%, 34.4117647059%);text-align:center;}#mermaid-svg-680 .icon-shape p,#mermaid-svg-680 .image-shape p{background-color:hsl(0, 0%, 34.4117647059%);padding:2px;}#mermaid-svg-680 .icon-shape rect,#mermaid-svg-680 .image-shape rect{opacity:0.5;background-color:hsl(0, 0%, 34.4117647059%);fill:hsl(0, 0%, 34.4117647059%);}#mermaid-svg-680 .label-icon{display:inline-block;height:1em;overflow:visible;vertical-align:-0.125em;}#mermaid-svg-680 .node .label-icon path{fill:currentColor;stroke:revert;stroke-width:revert;}#mermaid-svg-680 :root{--mermaid-font-family:"trebuchet ms",verdana,arial,sans-serif;}</style><g><marker id="mermaid-svg-680_flowchart-v2-pointEnd" class="marker flowchart-v2" viewBox="0 0 10 10" refX="5" refY="5" markerUnits="userSpaceOnUse" markerWidth="8" markerHeight="8" orient="auto"><path d="M 0 0 L 10 5 L 0 10 z" class="arrowMarkerPath" style="stroke-width: 1; stroke-dasharray: 1, 0;"/></marker><marker id="mermaid-svg-680_flowchart-v2-pointStart" class="marker flowchart-v2" viewBox="0 0 10 10" refX="4.5" refY="5" markerUnits="userSpaceOnUse" markerWidth="8" markerHeight="8" orient="auto"><path d="M 0 5 L 10 10 L 10 0 z" class="arrowMarkerPath" style="stroke-width: 1; stroke-dasharray: 1, 0;"/></marker><marker id="mermaid-svg-680_flowchart-v2-circleEnd" class="marker flowchart-v2" viewBox="0 0 10 10" refX="11" refY="5" markerUnits="userSpaceOnUse" markerWidth="11" markerHeight="11" orient="auto"><circle cx="5" cy="5" r="5" class="arrowMarkerPath" style="stroke-width: 1; stroke-dasharray: 1, 0;"/></marker><marker id="mermaid-svg-680_flowchart-v2-circleStart" class="marker flowchart-v2" viewBox="0 0 10 10" refX="-1" refY="5" markerUnits="userSpaceOnUse" markerWidth="11" markerHeight="11" orient="auto"><circle cx="5" cy="5" r="5" class="arrowMarkerPath" style="stroke-width: 1; stroke-dasharray: 1, 0;"/></marker><marker id="mermaid-svg-680_flowchart-v2-crossEnd" class="marker cross flowchart-v2" viewBox="0 0 11 11" refX="12" refY="5.2" markerUnits="userSpaceOnUse" markerWidth="11" markerHeight="11" orient="auto"><path d="M 1,1 l 9,9 M 10,1 l -9,9" class="arrowMarkerPath" style="stroke-width: 2; stroke-dasharray: 1, 0;"/></marker><marker id="mermaid-svg-680_flowchart-v2-crossStart" class="marker cross flowchart-v2" viewBox="0 0 11 11" refX="-1" refY="5.2" markerUnits="userSpaceOnUse" markerWidth="11" markerHeight="11" orient="auto"><path d="M 1,1 l 9,9 M 10,1 l -9,9" class="arrowMarkerPath" style="stroke-width: 2; stroke-dasharray: 1, 0;"/></marker><g class="root"><g class="clusters"><g class="cluster" id="Docker" data-look="classic"><rect style="" x="8" y="193.4601058959961" width="1461.2843761444092" height="1052.0680847167969"/><g class="cluster-label" transform="translate(638.6421880722046, 193.4601058959961)"><foreignObject width="200" height="48"><div xmlns="http://www.w3.org/1999/xhtml" style="display: table; white-space: break-spaces; line-height: 1.5; max-width: 200px; text-align: center; width: 200px;"><span class="nodeLabel"><p>Docker Compose окружение</p></span></div></foreignObject></g></g><g class="cluster" id="External" data-look="classic"><rect style="" x="846.5156192779541" y="8" width="520.9750061035156" height="135.4601058959961"/><g class="cluster-label" transform="translate(1040.253122329712, 8)"><foreignObject width="133.5" height="24"><div xmlns="http://www.w3.org/1999/xhtml" style="display: table-cell; white-space: nowrap; line-height: 1.5; max-width: 200px; text-align: center;"><span class="nodeLabel"><p>Внешние системы</p></span></div></foreignObject></g></g><g class="cluster" id="Storage" data-look="classic"><rect style="" x="28" y="895.4027252197266" width="180.1125030517578" height="172.1254653930664"/><g class="cluster-label" transform="translate(76.3062515258789, 895.4027252197266)"><foreignObject width="83.5" height="24"><div xmlns="http://www.w3.org/1999/xhtml" style="display: table-cell; white-space: nowrap; line-height: 1.5; max-width: 200px; text-align: center;"><span class="nodeLabel"><p>Хранилище</p></span></div></foreignObject></g></g><g class="cluster" id="Services" data-look="classic"><rect style="" x="228.1125030517578" y="393.8623580932617" width="624.1499938964844" height="826.6658325195312"/><g class="cluster-label" transform="translate(461.8812484741211, 393.8623580932617)"><foreignObject width="156.6125030517578" height="24"><div xmlns="http://www.w3.org/1999/xhtml" style="display: table-cell; white-space: nowrap; line-height: 1.5; max-width: 200px; text-align: center;"><span class="nodeLabel"><p>Сервисы SITL-module</p></span></div></foreignObject></g></g><g class="cluster" id="Brokers" data-look="classic"><rect style="" x="872.2624969482422" y="218.4601058959961" width="577.021879196167" height="626.9426193237305"/><g class="cluster-label" transform="translate(1085.4671850204468, 218.4601058959961)"><foreignObject width="150.6125030517578" height="24"><div xmlns="http://www.w3.org/1999/xhtml" style="display: table-cell; white-space: nowrap; line-height: 1.5; max-width: 200px; text-align: center;"><span class="nodeLabel"><p>Брокеры сообщений</p></span></div></foreignObject></g></g></g><g class="edgePaths"><path d="M970.123,117.533L968.578,121.854C967.032,126.175,963.941,134.818,962.396,143.306C960.85,151.793,960.85,160.127,960.85,168.46C960.85,176.793,960.85,185.127,960.85,193.46C960.85,201.793,960.85,210.127,961.316,217.811C961.783,225.496,962.716,232.531,963.182,236.049L963.649,239.567" id="L_Producer_MQTT_0" class="edge-thickness-normal edge-pattern-solid edge-thickness-normal edge-pattern-solid flowchart-link" style="" marker-end="url(#mermaid-svg-680_flowchart-v2-pointEnd)"/><path d="M1079.003,98.768L1091.199,106.217C1103.396,113.665,1127.789,128.563,1139.985,140.178C1152.181,151.793,1152.181,160.127,1152.181,168.46C1152.181,176.793,1152.181,185.127,1152.181,193.46C1152.181,201.793,1152.181,210.127,1152.181,226.827C1152.181,243.527,1152.181,268.594,1152.181,293.661C1152.181,318.728,1152.181,343.795,1152.181,360.496C1152.181,377.196,1152.181,385.529,1152.181,402.362C1152.181,419.196,1152.181,444.529,1152.181,469.862C1152.181,495.196,1152.181,520.529,1157.614,539.498C1163.047,558.466,1173.913,571.07,1179.346,577.372L1184.779,583.674" id="L_Producer_Kafka_0" class="edge-thickness-normal edge-pattern-solid edge-thickness-normal edge-pattern-solid flowchart-link" style="" marker-end="url(#mermaid-svg-680_flowchart-v2-pointEnd)"/><path d="M930.797,340.931L927.472,345.586C924.148,350.241,917.499,359.552,914.174,368.374C910.85,377.196,910.85,385.529,871.393,397.786C831.935,410.043,753.021,426.223,713.563,434.314L674.106,442.404" id="L_MQTT_Verifier_0" class="edge-thickness-normal edge-pattern-solid edge-thickness-normal edge-pattern-solid flowchart-link" style="" marker-end="url(#mermaid-svg-680_flowchart-v2-pointEnd)"/><path d="M1187.391,613.365L1091.607,602.115C995.823,590.864,804.255,568.363,704.957,553.429C605.658,538.494,598.629,531.125,595.114,527.441L591.6,523.757" id="L_Kafka_Verifier_0" class="edge-thickness-normal edge-pattern-solid edge-thickness-normal edge-pattern-solid flowchart-link" style="" marker-end="url(#mermaid-svg-680_flowchart-v2-pointEnd)"/><path d="M670.188,444.572L713.631,436.12C757.075,427.669,843.962,410.766,887.406,398.147C930.85,385.529,930.85,377.196,932.765,369.255C934.679,361.315,938.509,353.768,940.423,349.995L942.338,346.221" id="L_Verifier_MQTT_0" class="edge-thickness-normal edge-pattern-solid edge-thickness-normal edge-pattern-solid flowchart-link" style="" marker-end="url(#mermaid-svg-680_flowchart-v2-pointEnd)"/><path d="M491.536,520.862L487.561,525.029C483.587,529.196,475.637,537.529,590.949,553.079C706.261,568.629,944.835,591.395,1064.122,602.778L1183.409,614.161" id="L_Verifier_Kafka_0" class="edge-thickness-normal edge-pattern-solid edge-thickness-normal edge-pattern-solid flowchart-link" style="" marker-end="url(#mermaid-svg-680_flowchart-v2-pointEnd)"/><path d="M957.499,343.572L956.391,347.787C955.283,352.002,953.066,360.432,951.958,368.814C950.85,377.196,950.85,385.529,950.85,402.362C950.85,419.196,950.85,444.529,950.85,469.862C950.85,495.196,950.85,520.529,950.85,545.491C950.85,570.452,950.85,595.042,950.85,619.633C950.85,644.223,950.85,668.813,880.221,690.732C809.592,712.651,668.334,731.9,597.705,741.524L527.076,751.148" id="L_MQTT_Controller_0" class="edge-thickness-normal edge-pattern-solid edge-thickness-normal edge-pattern-solid flowchart-link" style="" marker-end="url(#mermaid-svg-680_flowchart-v2-pointEnd)"/><path d="M1187.391,639.183L1162.728,648.22C1138.066,657.256,1088.741,675.329,978.69,694.407C868.639,713.485,697.862,733.567,612.474,743.608L527.085,753.649" id="L_Kafka_Controller_0" class="edge-thickness-normal edge-pattern-solid edge-thickness-normal edge-pattern-solid flowchart-link" style="" marker-end="url(#mermaid-svg-680_flowchart-v2-pointEnd)"/><path d="M393.113,820.403L393.113,824.569C393.113,828.736,393.113,837.069,393.113,845.403C393.113,853.736,393.113,862.069,393.113,870.403C393.113,878.736,393.113,887.069,357.082,902.51C321.052,917.95,248.991,940.497,212.96,951.771L176.93,963.044" id="L_Controller_Redis_0" class="edge-thickness-normal edge-pattern-solid edge-thickness-normal edge-pattern-solid flowchart-link" style="" marker-end="url(#mermaid-svg-680_flowchart-v2-pointEnd)"/><path d="M100.298,1041.902L99.087,1046.173C97.875,1050.444,95.452,1058.986,156.983,1067.424C218.515,1075.862,344.001,1084.195,410.853,1092.081C477.705,1099.967,485.922,1107.405,490.031,1111.125L494.139,1114.844" id="L_Redis_Core_0" class="edge-thickness-normal edge-pattern-solid edge-thickness-normal edge-pattern-solid flowchart-link" style="" marker-end="url(#mermaid-svg-680_flowchart-v2-pointEnd)"/><path d="M583.27,1117.528L587.873,1113.362C592.476,1109.195,601.682,1100.862,529.984,1092.528C458.286,1084.195,305.685,1075.862,227.93,1067.94C150.174,1060.018,147.264,1052.508,145.809,1048.752L144.354,1044.997" id="L_Core_Redis_0" class="edge-thickness-normal edge-pattern-solid edge-thickness-normal edge-pattern-solid flowchart-link" style="" marker-end="url(#mermaid-svg-680_flowchart-v2-pointEnd)"/><path d="M1144.219,111.12L1135.781,116.51C1127.344,121.9,1110.469,132.68,1102.031,142.237C1093.594,151.793,1093.594,160.127,1093.594,168.46C1093.594,176.793,1093.594,185.127,1093.594,193.46C1093.594,201.793,1093.594,210.127,1084.015,222.134C1074.436,234.141,1055.278,249.822,1045.699,257.662L1036.12,265.502" id="L_Consumer_MQTT_0" class="edge-thickness-normal edge-pattern-solid edge-thickness-normal edge-pattern-solid flowchart-link" style="" marker-end="url(#mermaid-svg-680_flowchart-v2-pointEnd)"/><path d="M1280.181,116.509L1285.001,121.001C1289.822,125.493,1299.462,134.476,1304.283,143.135C1309.103,151.793,1309.103,160.127,1309.103,168.46C1309.103,176.793,1309.103,185.127,1309.103,193.46C1309.103,201.793,1309.103,210.127,1309.103,226.827C1309.103,243.527,1309.103,268.594,1309.103,293.661C1309.103,318.728,1309.103,343.795,1309.103,360.496C1309.103,377.196,1309.103,385.529,1309.103,402.362C1309.103,419.196,1309.103,444.529,1309.103,469.862C1309.103,495.196,1309.103,520.529,1305.646,537.731C1302.19,554.933,1295.276,564.003,1291.819,568.538L1288.363,573.073" id="L_Consumer_Kafka_0" class="edge-thickness-normal edge-pattern-solid edge-thickness-normal edge-pattern-solid flowchart-link" style="" marker-end="url(#mermaid-svg-680_flowchart-v2-pointEnd)"/><path d="M1029.973,335.253L1034.88,340.855C1039.787,346.456,1049.601,357.659,1054.508,367.428C1059.416,377.196,1059.416,385.529,1059.416,402.362C1059.416,419.196,1059.416,444.529,1059.416,469.862C1059.416,495.196,1059.416,520.529,1059.416,545.491C1059.416,570.452,1059.416,595.042,1059.416,619.633C1059.416,644.223,1059.416,668.813,1019.709,689.393C980.003,709.973,900.591,726.543,860.884,734.828L821.178,743.113" id="L_MQTT_Messaging_0" class="edge-thickness-normal edge-pattern-solid edge-thickness-normal edge-pattern-solid flowchart-link" style="" marker-end="url(#mermaid-svg-680_flowchart-v2-pointEnd)"/><path d="M1240.747,668.403L1240.747,672.569C1240.747,676.736,1240.747,685.069,1170.826,698.976C1100.906,712.883,961.065,732.364,891.145,742.105L821.224,751.845" id="L_Kafka_Messaging_0" class="edge-thickness-normal edge-pattern-solid edge-thickness-normal edge-pattern-solid flowchart-link" style="" marker-end="url(#mermaid-svg-680_flowchart-v2-pointEnd)"/><path d="M695.188,808.403L695.188,814.569C695.188,820.736,695.188,833.069,695.188,843.403C695.188,853.736,695.188,862.069,695.188,870.403C695.188,878.736,695.188,887.069,608.834,904.113C522.481,921.157,349.775,946.911,263.422,959.788L177.069,972.665" id="L_Messaging_Redis_0" class="edge-thickness-normal edge-pattern-solid edge-thickness-normal edge-pattern-solid flowchart-link" style="" marker-end="url(#mermaid-svg-680_flowchart-v2-pointEnd)"/><path d="M817.262,754.767L902.569,744.54C987.876,734.312,1158.49,713.858,1243.796,691.335C1329.103,668.813,1329.103,644.223,1329.103,619.633C1329.103,595.042,1329.103,570.452,1329.103,545.491C1329.103,520.529,1329.103,495.196,1329.103,469.862C1329.103,444.529,1329.103,419.196,1329.103,402.362C1329.103,385.529,1329.103,377.196,1280.409,362.808C1231.715,348.42,1134.327,327.977,1085.634,317.756L1036.94,307.534" id="L_Messaging_MQTT_0" class="edge-thickness-normal edge-pattern-solid edge-thickness-normal edge-pattern-solid flowchart-link" style="" marker-end="url(#mermaid-svg-680_flowchart-v2-pointEnd)"/><path d="M817.262,755.215L905.903,744.913C994.543,734.611,1171.823,714.007,1251.847,697.839C1331.872,681.672,1314.641,669.94,1306.025,664.075L1297.41,658.209" id="L_Messaging_Kafka_0" class="edge-thickness-normal edge-pattern-solid edge-thickness-normal edge-pattern-solid flowchart-link" style="" marker-end="url(#mermaid-svg-680_flowchart-v2-pointEnd)"/><path d="M1294.103,650.298L1306.603,657.482C1319.103,664.666,1344.103,679.034,1356.603,690.346C1369.103,701.658,1369.103,709.913,1369.103,714.041L1369.103,718.168" id="L_Kafka_ZK_0" class="edge-thickness-normal edge-pattern-solid edge-thickness-normal edge-pattern-solid flowchart-link" style="" marker-end="url(#mermaid-svg-680_flowchart-v2-pointEnd)"/></g><g class="edgeLabels"><g class="edgeLabel"><g class="label" transform="translate(0, 0)"><foreignObject width="0" height="0"><div xmlns="http://www.w3.org/1999/xhtml" class="labelBkg" style="display: table-cell; white-space: nowrap; line-height: 1.5; max-width: 200px; text-align: center;"><span class="edgeLabel"></span></div></foreignObject></g></g><g class="edgeLabel"><g class="label" transform="translate(0, 0)"><foreignObject width="0" height="0"><div xmlns="http://www.w3.org/1999/xhtml" class="labelBkg" style="display: table-cell; white-space: nowrap; line-height: 1.5; max-width: 200px; text-align: center;"><span class="edgeLabel"></span></div></foreignObject></g></g><g class="edgeLabel"><g class="label" transform="translate(0, 0)"><foreignObject width="0" height="0"><div xmlns="http://www.w3.org/1999/xhtml" class="labelBkg" style="display: table-cell; white-space: nowrap; line-height: 1.5; max-width: 200px; text-align: center;"><span class="edgeLabel"></span></div></foreignObject></g></g><g class="edgeLabel"><g class="label" transform="translate(0, 0)"><foreignObject width="0" height="0"><div xmlns="http://www.w3.org/1999/xhtml" class="labelBkg" style="display: table-cell; white-space: nowrap; line-height: 1.5; max-width: 200px; text-align: center;"><span class="edgeLabel"></span></div></foreignObject></g></g><g class="edgeLabel"><g class="label" transform="translate(0, 0)"><foreignObject width="0" height="0"><div xmlns="http://www.w3.org/1999/xhtml" class="labelBkg" style="display: table-cell; white-space: nowrap; line-height: 1.5; max-width: 200px; text-align: center;"><span class="edgeLabel"></span></div></foreignObject></g></g><g class="edgeLabel"><g class="label" transform="translate(0, 0)"><foreignObject width="0" height="0"><div xmlns="http://www.w3.org/1999/xhtml" class="labelBkg" style="display: table-cell; white-space: nowrap; line-height: 1.5; max-width: 200px; text-align: center;"><span class="edgeLabel"></span></div></foreignObject></g></g><g class="edgeLabel"><g class="label" transform="translate(0, 0)"><foreignObject width="0" height="0"><div xmlns="http://www.w3.org/1999/xhtml" class="labelBkg" style="display: table-cell; white-space: nowrap; line-height: 1.5; max-width: 200px; text-align: center;"><span class="edgeLabel"></span></div></foreignObject></g></g><g class="edgeLabel"><g class="label" transform="translate(0, 0)"><foreignObject width="0" height="0"><div xmlns="http://www.w3.org/1999/xhtml" class="labelBkg" style="display: table-cell; white-space: nowrap; line-height: 1.5; max-width: 200px; text-align: center;"><span class="edgeLabel"></span></div></foreignObject></g></g><g class="edgeLabel"><g class="label" transform="translate(0, 0)"><foreignObject width="0" height="0"><div xmlns="http://www.w3.org/1999/xhtml" class="labelBkg" style="display: table-cell; white-space: nowrap; line-height: 1.5; max-width: 200px; text-align: center;"><span class="edgeLabel"></span></div></foreignObject></g></g><g class="edgeLabel"><g class="label" transform="translate(0, 0)"><foreignObject width="0" height="0"><div xmlns="http://www.w3.org/1999/xhtml" class="labelBkg" style="display: table-cell; white-space: nowrap; line-height: 1.5; max-width: 200px; text-align: center;"><span class="edgeLabel"></span></div></foreignObject></g></g><g class="edgeLabel"><g class="label" transform="translate(0, 0)"><foreignObject width="0" height="0"><div xmlns="http://www.w3.org/1999/xhtml" class="labelBkg" style="display: table-cell; white-space: nowrap; line-height: 1.5; max-width: 200px; text-align: center;"><span class="edgeLabel"></span></div></foreignObject></g></g><g class="edgeLabel"><g class="label" transform="translate(0, 0)"><foreignObject width="0" height="0"><div xmlns="http://www.w3.org/1999/xhtml" class="labelBkg" style="display: table-cell; white-space: nowrap; line-height: 1.5; max-width: 200px; text-align: center;"><span class="edgeLabel"></span></div></foreignObject></g></g><g class="edgeLabel"><g class="label" transform="translate(0, 0)"><foreignObject width="0" height="0"><div xmlns="http://www.w3.org/1999/xhtml" class="labelBkg" style="display: table-cell; white-space: nowrap; line-height: 1.5; max-width: 200px; text-align: center;"><span class="edgeLabel"></span></div></foreignObject></g></g><g class="edgeLabel"><g class="label" transform="translate(0, 0)"><foreignObject width="0" height="0"><div xmlns="http://www.w3.org/1999/xhtml" class="labelBkg" style="display: table-cell; white-space: nowrap; line-height: 1.5; max-width: 200px; text-align: center;"><span class="edgeLabel"></span></div></foreignObject></g></g><g class="edgeLabel"><g class="label" transform="translate(0, 0)"><foreignObject width="0" height="0"><div xmlns="http://www.w3.org/1999/xhtml" class="labelBkg" style="display: table-cell; white-space: nowrap; line-height: 1.5; max-width: 200px; text-align: center;"><span class="edgeLabel"></span></div></foreignObject></g></g><g class="edgeLabel"><g class="label" transform="translate(0, 0)"><foreignObject width="0" height="0"><div xmlns="http://www.w3.org/1999/xhtml" class="labelBkg" style="display: table-cell; white-space: nowrap; line-height: 1.5; max-width: 200px; text-align: center;"><span class="edgeLabel"></span></div></foreignObject></g></g><g class="edgeLabel"><g class="label" transform="translate(0, 0)"><foreignObject width="0" height="0"><div xmlns="http://www.w3.org/1999/xhtml" class="labelBkg" style="display: table-cell; white-space: nowrap; line-height: 1.5; max-width: 200px; text-align: center;"><span class="edgeLabel"></span></div></foreignObject></g></g><g class="edgeLabel"><g class="label" transform="translate(0, 0)"><foreignObject width="0" height="0"><div xmlns="http://www.w3.org/1999/xhtml" class="labelBkg" style="display: table-cell; white-space: nowrap; line-height: 1.5; max-width: 200px; text-align: center;"><span class="edgeLabel"></span></div></foreignObject></g></g><g class="edgeLabel"><g class="label" transform="translate(0, 0)"><foreignObject width="0" height="0"><div xmlns="http://www.w3.org/1999/xhtml" class="labelBkg" style="display: table-cell; white-space: nowrap; line-height: 1.5; max-width: 200px; text-align: center;"><span class="edgeLabel"></span></div></foreignObject></g></g></g><g class="nodes"><g class="node default" id="flowchart-Producer-0" transform="translate(985.259370803833, 75.73005294799805)"><path d="M0,14.999600081663422 a93.7437515258789,14.999600081663422 0,0,0 187.4875030517578,0 a93.7437515258789,14.999600081663422 0,0,0 -187.4875030517578,0 l0,53.999600081663424 a93.7437515258789,14.999600081663422 0,0,0 187.4875030517578,0 l0,-53.999600081663424" class="basic label-container" style="" transform="translate(-93.7437515258789, -41.99940012249513)"/><g class="label" style="" transform="translate(-86.2437515258789, -2)"><rect/><foreignObject width="172.4875030517578" height="24"><div xmlns="http://www.w3.org/1999/xhtml" style="display: table-cell; white-space: nowrap; line-height: 1.5; max-width: 200px; text-align: center;"><span class="nodeLabel"><p>Производители команд</p></span></div></foreignObject></g></g><g class="node default" id="flowchart-Consumer-1" transform="translate(1230.7468738555908, 75.73005294799805)"><path d="M0,15.486700495550929 a101.7437515258789,15.486700495550929 0,0,0 203.4875030517578,0 a101.7437515258789,15.486700495550929 0,0,0 -203.4875030517578,0 l0,54.48670049555093 a101.7437515258789,15.486700495550929 0,0,0 203.4875030517578,0 l0,-54.48670049555093" class="basic label-container" style="" transform="translate(-101.7437515258789, -42.730050743326395)"/><g class="label" style="" transform="translate(-94.2437515258789, -2)"><rect/><foreignObject width="188.4875030517578" height="24"><div xmlns="http://www.w3.org/1999/xhtml" style="display: table-cell; white-space: nowrap; line-height: 1.5; max-width: 200px; text-align: center;"><span class="nodeLabel"><p>Потребители телеметрии</p></span></div></foreignObject></g></g><g class="node default" id="flowchart-MQTT-2" transform="translate(970.8499965667725, 293.6612319946289)"><path d="M0,12.467415203035063 a62.17499923706055,12.467415203035063 0,0,0 124.3499984741211,0 a62.17499923706055,12.467415203035063 0,0,0 -124.3499984741211,0 l0,75.46741520303506 a62.17499923706055,12.467415203035063 0,0,0 124.3499984741211,0 l0,-75.46741520303506" class="basic label-container" style="" transform="translate(-62.17499923706055, -50.2011228045526)"/><g class="label" style="" transform="translate(-54.67499923706055, -14)"><rect/><foreignObject width="109.3499984741211" height="48"><div xmlns="http://www.w3.org/1999/xhtml" style="display: table-cell; white-space: nowrap; line-height: 1.5; max-width: 200px; text-align: center;"><span class="nodeLabel"><p>MQTT Broker<br />Mosquitto:1883</p></span></div></foreignObject></g></g><g class="node default" id="flowchart-Kafka-3" transform="translate(1240.7468738555908, 619.6325416564941)"><path d="M0,11.513459656163684 a53.35625076293945,11.513459656163684 0,0,0 106.7125015258789,0 a53.35625076293945,11.513459656163684 0,0,0 -106.7125015258789,0 l0,74.51345965616369 a53.35625076293945,11.513459656163684 0,0,0 106.7125015258789,0 l0,-74.51345965616369" class="basic label-container" style="" transform="translate(-53.35625076293945, -48.77018948424553)"/><g class="label" style="" transform="translate(-45.85625076293945, -14)"><rect/><foreignObject width="91.7125015258789" height="48"><div xmlns="http://www.w3.org/1999/xhtml" style="display: table-cell; white-space: nowrap; line-height: 1.5; max-width: 200px; text-align: center;"><span class="nodeLabel"><p>Kafka Broker<br />:9092</p></span></div></foreignObject></g></g><g class="node default" id="flowchart-ZK-4" transform="translate(1369.1031246185303, 769.4027252197266)"><path d="M0,10.489581725148447 a45.181251525878906,10.489581725148447 0,0,0 90.36250305175781,0 a45.181251525878906,10.489581725148447 0,0,0 -90.36250305175781,0 l0,73.48958172514844 a45.181251525878906,10.489581725148447 0,0,0 90.36250305175781,0 l0,-73.48958172514844" class="basic label-container" style="" transform="translate(-45.181251525878906, -47.23437258772267)"/><g class="label" style="" transform="translate(-37.681251525878906, -14)"><rect/><foreignObject width="75.36250305175781" height="48"><div xmlns="http://www.w3.org/1999/xhtml" style="display: table-cell; white-space: nowrap; line-height: 1.5; max-width: 200px; text-align: center;"><span class="nodeLabel"><p>Zookeeper<br />:2181</p></span></div></foreignObject></g></g><g class="node default" id="flowchart-Verifier-5" transform="translate(540.1875, 469.8623580932617)"><rect class="basic label-container" style="" x="-130" y="-51" width="260" height="102"/><g class="label" style="" transform="translate(-100, -36)"><rect/><foreignObject width="200" height="72"><div xmlns="http://www.w3.org/1999/xhtml" style="display: table; white-space: break-spaces; line-height: 1.5; max-width: 200px; text-align: center; width: 200px;"><span class="nodeLabel"><p>Verifier<br />Валидация входящих команд</p></span></div></foreignObject></g></g><g class="node default" id="flowchart-Controller-6" transform="translate(393.1125030517578, 769.4027252197266)"><rect class="basic label-container" style="" x="-130" y="-51" width="260" height="102"/><g class="label" style="" transform="translate(-100, -36)"><rect/><foreignObject width="200" height="72"><div xmlns="http://www.w3.org/1999/xhtml" style="display: table; white-space: break-spaces; line-height: 1.5; max-width: 200px; text-align: center; width: 200px;"><span class="nodeLabel"><p>Controller<br />Применение команд к состоянию</p></span></div></foreignObject></g></g><g class="node default" id="flowchart-Core-7" transform="translate(540.1875, 1156.528190612793)"><rect class="basic label-container" style="" x="-126.4000015258789" y="-39" width="252.8000030517578" height="78"/><g class="label" style="" transform="translate(-96.4000015258789, -24)"><rect/><foreignObject width="192.8000030517578" height="48"><div xmlns="http://www.w3.org/1999/xhtml" style="display: table-cell; white-space: nowrap; line-height: 1.5; max-width: 200px; text-align: center;"><span class="nodeLabel"><p>Core<br />Физический движок 10 Гц</p></span></div></foreignObject></g></g><g class="node default" id="flowchart-Messaging-8" transform="translate(695.1875, 769.4027252197266)"><rect class="basic label-container" style="" x="-122.07500457763672" y="-39" width="244.15000915527344" height="78"/><g class="label" style="" transform="translate(-92.07500457763672, -24)"><rect/><foreignObject width="184.15000915527344" height="48"><div xmlns="http://www.w3.org/1999/xhtml" style="display: table-cell; white-space: nowrap; line-height: 1.5; max-width: 200px; text-align: center;"><span class="nodeLabel"><p>Messaging<br />Request-Response сервер</p></span></div></foreignObject></g></g><g class="node default" id="flowchart-Redis-9" transform="translate(118.0562515258789, 981.4654579162598)"><path d="M0,11.708490788718025 a55.056251525878906,11.708490788718025 0,0,0 110.11250305175781,0 a55.056251525878906,11.708490788718025 0,0,0 -110.11250305175781,0 l0,98.70849078871802 a55.056251525878906,11.708490788718025 0,0,0 110.11250305175781,0 l0,-98.70849078871802" class="basic label-container" style="" transform="translate(-55.056251525878906, -61.062736183077035)"/><g class="label" style="" transform="translate(-47.556251525878906, -26)"><rect/><foreignObject width="95.11250305175781" height="72"><div xmlns="http://www.w3.org/1999/xhtml" style="display: table-cell; white-space: nowrap; line-height: 1.5; max-width: 200px; text-align: center;"><span class="nodeLabel"><p>Redis<br />drone:*:state<br />:6379</p></span></div></foreignObject></g></g></g></g></g></svg>